<svg width="50" height="50" viewBox="0 0 50 50" fill="none" xmlns="http://www.w3.org/2000/svg">
<path d="M38.2157 21.9435C37.504 22.6584 36.959 23.5213 36.6194 24.4706C36.2799 25.4198 36.1542 26.4322 36.2513 27.4355L36.2175 27.4017C36.3174 28.5827 36.1579 29.7713 35.7502 30.8844C35.3425 31.9975 34.6964 33.0083 33.857 33.8464C33.0176 34.6844 32.0051 35.3295 30.8902 35.7365C29.7754 36.1436 28.585 36.3029 27.4021 36.2032L27.4359 36.2369C26.0209 36.1054 24.5998 36.4129 23.3663 37.1173C22.1327 37.8217 21.1468 38.8888 20.543 40.1732C19.9391 41.4575 19.7468 42.8965 19.9921 44.294C20.2374 45.6916 20.9084 46.9795 21.9137 47.9823C22.919 48.9851 24.2096 49.6539 25.6096 49.8975C27.0095 50.1412 28.4507 49.9478 29.7365 49.3438C31.0223 48.7397 32.0903 47.7544 32.7947 46.5222C33.4991 45.29 33.8058 43.8709 33.6728 42.4583L33.7085 42.492C33.6086 41.311 33.7681 40.1225 34.1758 39.0094C34.5835 37.8963 35.2296 36.8855 36.069 36.0474C36.9084 35.2094 37.9209 34.5643 39.0358 34.1572C40.1506 33.7502 41.3411 33.5909 42.5239 33.6906L42.4883 33.6569C43.6441 33.7606 44.8074 33.5714 45.8705 33.1068C46.9336 32.6421 47.862 31.9171 48.5697 30.9988C49.2774 30.0805 49.7415 28.9988 49.9189 27.8537C50.0964 26.7087 49.9814 25.5375 49.5848 24.4486C49.1882 23.3598 48.5226 22.3885 47.6499 21.6248C46.7772 20.8611 45.7255 20.3297 44.5923 20.0799C43.4591 19.8301 42.281 19.8699 41.1674 20.1957C40.0537 20.5215 39.0404 21.1226 38.2214 21.9435H38.2157Z" fill="#EEEEEE"/>
<path d="M24.3615 31.8155L24.3259 31.7818C25.3312 31.8829 26.3465 31.7597 27.2984 31.4211C28.2502 31.0825 29.1148 30.5369 29.8295 29.8238C30.5443 29.1107 31.0914 28.248 31.4313 27.2979C31.7711 26.3478 31.8953 25.3342 31.7948 24.3304L31.8304 24.3641C31.7306 23.1832 31.8901 21.9946 32.2978 20.8815C32.7055 19.7684 33.3516 18.7576 34.191 17.9195C35.0304 17.0815 36.0429 16.4364 37.1577 16.0293C38.2726 15.6223 39.463 15.463 40.6459 15.5627L40.6102 15.529C42.0253 15.6617 43.4469 15.3553 44.6811 14.6517C45.9154 13.948 46.9022 12.8814 47.5069 11.5972C48.1117 10.3131 48.305 8.87394 48.0604 7.47608C47.8158 6.07823 47.1453 4.78974 46.1403 3.78634C45.1353 2.78294 43.8447 2.11349 42.4447 1.86931C41.0446 1.62512 39.6031 1.81809 38.3169 2.42188C37.0307 3.02568 35.9624 4.01091 35.2577 5.24319C34.5529 6.47547 34.246 7.89481 34.3789 9.30762L34.3451 9.27199C34.4453 10.4531 34.286 11.6417 33.8784 12.755C33.4709 13.8682 32.8248 14.8792 31.9853 15.7173C31.1458 16.5555 30.1332 17.2005 29.0182 17.6075C27.9032 18.0144 26.7126 18.1734 25.5297 18.0734L25.5635 18.109C24.5581 18.0079 23.5428 18.1311 22.591 18.4697C21.6392 18.8083 20.7746 19.3539 20.0598 20.067C19.3451 20.7801 18.798 21.6429 18.4581 22.5929C18.1182 23.543 17.994 24.5566 18.0946 25.5604L18.0608 25.5267C18.1603 26.7076 18.0006 27.896 17.5927 29.0089C17.1849 30.1219 16.5388 31.1326 15.6995 31.9706C14.8602 32.8086 13.8478 33.4536 12.7331 33.8608C11.6184 34.268 10.4281 34.4275 9.24532 34.3281L9.27913 34.3618C7.86407 34.2292 6.44247 34.5355 5.20822 35.2392C3.97398 35.9428 2.98718 37.0094 2.38242 38.2936C1.77766 39.5777 1.58439 41.0169 1.82896 42.4147C2.07353 43.8126 2.74405 45.1011 3.74905 46.1045C4.75405 47.1079 6.0446 47.7773 7.44468 48.0215C8.84476 48.2657 10.2862 48.0727 11.5724 47.4689C12.8586 46.8652 13.9269 45.8799 14.6317 44.6476C15.3364 43.4154 15.6433 41.996 15.5104 40.5832L15.5461 40.617C15.4462 39.436 15.6057 38.2474 16.0134 37.1343C16.4212 36.0213 17.0673 35.0104 17.9066 34.1723C18.746 33.3343 19.7585 32.6892 20.8734 32.2822C21.9883 31.8751 23.1787 31.7159 24.3615 31.8155Z" fill="#EEEEEE"/>
<path d="M11.775 28.0524C12.4868 27.3376 13.0318 26.4747 13.3711 25.5254C13.7103 24.576 13.8354 23.5636 13.7376 22.5604L13.7732 22.5941C13.6733 21.4128 13.8329 20.2239 14.2408 19.1105C14.6487 17.9971 15.2952 16.9861 16.135 16.148C16.9748 15.3098 17.9878 14.6648 19.1031 14.258C20.2184 13.8512 21.4093 13.6924 22.5924 13.7927L22.5568 13.759C23.9713 13.8913 25.3923 13.5847 26.626 12.8811C27.8597 12.1776 28.846 11.1112 29.4504 9.82743C30.0548 8.54368 30.2479 7.10505 30.0033 5.70773C29.7587 4.3104 29.0884 3.02239 28.0838 2.01936C27.0792 1.01633 25.7891 0.347092 24.3895 0.102918C22.99 -0.141257 21.5491 0.0515171 20.2633 0.654948C18.9775 1.25838 17.9094 2.24309 17.2047 3.4748C16.5 4.70652 16.193 6.12527 16.3255 7.53759L16.2917 7.50384C16.3915 8.68483 16.232 9.87336 15.8243 10.9865C15.4166 12.0996 14.7705 13.1104 13.9311 13.9485C13.0917 14.7865 12.0793 15.4316 10.9644 15.8387C9.84951 16.2457 8.6591 16.4049 7.47622 16.3053L7.51003 16.339C6.35423 16.2355 5.19098 16.425 4.12805 16.8899C3.06513 17.3547 2.13692 18.0799 1.42945 18.9983C0.721978 19.9166 0.258131 20.9984 0.0808913 22.1434C-0.096348 23.2884 0.0187544 24.4596 0.415533 25.5483C0.812312 26.6371 1.47793 27.6082 2.35071 28.3717C3.22348 29.1353 4.27517 29.6665 5.40833 29.9162C6.54149 30.1659 7.71944 30.126 8.83304 29.8002C9.94664 29.4744 10.9598 28.8732 11.7788 28.0524H11.775Z" fill="#EEEEEE"/>
</svg>
