<svg width="19" height="20" viewBox="0 0 19 20" fill="none" xmlns="http://www.w3.org/2000/svg">
<path d="M17.422 8.70523C14.8356 8.70395 12.2493 8.70459 9.66298 8.70489C9.66331 9.77763 9.66171 10.8504 9.66362 11.9228C11.1614 11.9224 12.6593 11.9221 14.1568 11.9228C13.9832 12.9507 13.3723 13.8908 12.506 14.4695C11.9614 14.8357 11.3357 15.0733 10.6906 15.1864C10.0414 15.2971 9.37054 15.3113 8.72292 15.1802C8.06435 15.0488 7.4357 14.7744 6.88728 14.3877C6.01037 13.7716 5.34113 12.8702 4.99752 11.8557C4.64616 10.8239 4.64358 9.67581 4.99913 8.64497C5.24582 7.91843 5.65643 7.24728 6.19583 6.70111C6.86118 6.01998 7.72619 5.53306 8.65817 5.33339C9.4562 5.16304 10.2977 5.19555 11.079 5.43192C11.7431 5.63354 12.3553 5.99743 12.8567 6.4763C13.3636 5.97229 13.8679 5.4654 14.3739 4.96045C14.6392 4.68865 14.9181 4.42876 15.1751 4.14955C14.4067 3.43846 13.506 2.86686 12.5218 2.50551C10.7499 1.8534 8.75158 1.83956 6.96778 2.45695C4.95757 3.14515 3.2459 4.64844 2.29686 6.54853C1.96645 7.20325 1.72522 7.90207 1.5803 8.62087C1.21574 10.4117 1.46984 12.3212 2.29589 13.9523C2.83274 15.017 3.60241 15.9635 4.53604 16.7055C5.41684 17.4078 6.4435 17.9267 7.53202 18.2162C8.90554 18.5846 10.3676 18.5762 11.7502 18.2616C12.9997 17.974 14.1819 17.3769 15.1258 16.5055C16.1235 15.5886 16.8352 14.3806 17.212 13.0825C17.623 11.6665 17.6796 10.1548 17.422 8.70523Z" fill="white"/>
</svg>
