<svg width="52" height="51" viewBox="0 0 52 51" fill="none" xmlns="http://www.w3.org/2000/svg">
<path d="M51.4929 25.5004C51.4929 39.5218 40.1263 50.8884 26.1049 50.8884C12.0834 50.8884 0.716797 39.5218 0.716797 25.5004C0.716797 11.4789 12.0834 0.112305 26.1049 0.112305C40.1263 0.112305 51.4929 11.4789 51.4929 25.5004ZM6.59225 25.5004C6.59225 36.2769 15.3283 45.013 26.1049 45.013C36.8814 45.013 45.6175 36.2769 45.6175 25.5004C45.6175 14.7239 36.8814 5.98776 26.1049 5.98776C15.3283 5.98776 6.59225 14.7239 6.59225 25.5004Z" fill="#1B1B1C"/>
<path d="M6.59225 25.5004C6.59225 36.2769 15.3283 45.013 26.1049 45.013C36.8814 45.013 45.6175 36.2769 45.6175 25.5004C45.6175 14.7239 36.8814 5.98776 26.1049 5.98776C15.3283 5.98776 6.59225 14.7239 6.59225 25.5004Z" fill="#1B1B1C"/>
<path d="M37.3444 30.4386C36.1431 32.1541 34.5529 33.561 32.7038 34.5443C30.8546 35.5275 28.799 36.0591 26.705 36.0956C24.611 36.1322 22.5381 35.6726 20.6557 34.7546C18.7734 33.8365 17.135 32.4859 15.8747 30.8133L18.3275 28.965C19.2962 30.2505 20.5554 31.2885 22.0021 31.9941C23.4488 32.6997 25.042 33.0529 26.6514 33.0248C28.2608 32.9968 29.8407 32.5882 31.2619 31.8325C32.6831 31.0768 33.9053 29.9955 34.8285 28.677L37.3444 30.4386Z" fill="#E8EAED"/>
<path fill-rule="evenodd" clip-rule="evenodd" d="M26.1054 15.2246C24.1023 15.2246 22.4785 16.8484 22.4785 18.8515V26.1052C22.4785 28.1083 24.1023 29.7321 26.1054 29.7321C28.1084 29.7321 29.7322 28.1083 29.7322 26.1052V18.8515C29.7322 16.8484 28.1084 15.2246 26.1054 15.2246ZM26.1055 17.6425C25.4378 17.6425 24.8965 18.1838 24.8965 18.8515V26.1052C24.8965 26.7729 25.4378 27.3142 26.1055 27.3142C26.7731 27.3142 27.3144 26.7729 27.3144 26.1052V18.8515C27.3144 18.1838 26.7731 17.6425 26.1055 17.6425Z" fill="#E8EAED"/>
</svg>
