<svg width="95" height="95" viewBox="0 0 95 95" fill="none" xmlns="http://www.w3.org/2000/svg">
<line x1="70.7611" y1="62.4393" x2="47.9198" y2="50.0187" stroke="#EE3751"/>
<rect x="37.75" y="4" width="20" height="20" rx="10" fill="#8BD90D"/>
<path d="M46.2374 16.7974H50.2174V17.8574H44.7174V16.9574L48.5974 11.4274H44.8174V10.3774H50.1274V11.2774L46.2374 16.7974Z" fill="#131313"/>
<rect x="38.25" y="67.5" width="19" height="19" rx="9.5" fill="#307FD9" fill-opacity="0.4"/>
<rect x="38.25" y="67.5" width="19" height="19" rx="9.5" stroke="#307FD9"/>
<rect x="12.75" y="24.75" width="18.5" height="18.5" rx="9.25" fill="#85D00C" fill-opacity="0.4"/>
<rect x="12.75" y="24.75" width="18.5" height="18.5" rx="9.25" stroke="#8BD90D" stroke-width="1.5"/>
<rect x="64.75" y="24.75" width="18.5" height="18.5" rx="9.25" fill="#EE3751" fill-opacity="0.4"/>
<rect x="64.75" y="24.75" width="18.5" height="18.5" rx="9.25" stroke="#EE3751" stroke-width="1.5"/>
<rect x="6" y="57" width="20" height="20" rx="10" fill="#2767B0"/>
<path d="M19.2777 70.8574H17.8977L15.9677 67.8474L14.0277 70.8574H12.6477L15.0877 67.0574L12.7677 63.3774H14.1377L15.9677 66.2574L17.7877 63.3774H19.1577L16.8377 67.0574L19.2777 70.8574Z" fill="#131313"/>
<rect x="69" y="57" width="20" height="20" rx="10" fill="#E3344D"/>
<path d="M79.5977 70.8574H78.4177V67.8474L75.5777 63.3774H76.9577L79.0077 66.6674L81.0477 63.3774H82.4277L79.5977 67.8474V70.8574Z" fill="#131313"/>
<line x1="24.7613" y1="62.5607" x2="47.6361" y2="50.1292" stroke="#307FD9"/>
<line x1="47.8711" y1="24" x2="47.8711" y2="50.3" stroke="#85D00C"/>
</svg>
