<svg width="20" height="20" viewBox="0 0 20 20" fill="none" xmlns="http://www.w3.org/2000/svg">
<path d="M4.16667 17.5C3.70833 17.5 3.31597 17.3368 2.98958 17.0104C2.66319 16.684 2.5 16.2917 2.5 15.8333V12.5H4.16667V15.8333H7.5V17.5H4.16667ZM12.5 17.5V15.8333H15.8333V12.5H17.5V15.8333C17.5 16.2917 17.3368 16.684 17.0104 17.0104C16.684 17.3368 16.2917 17.5 15.8333 17.5H12.5ZM2.5 7.5V4.16667C2.5 3.70833 2.66319 3.31597 2.98958 2.98958C3.31597 2.66319 3.70833 2.5 4.16667 2.5H7.5V4.16667H4.16667V7.5H2.5ZM15.8333 7.5V4.16667H12.5V2.5H15.8333C16.2917 2.5 16.684 2.66319 17.0104 2.98958C17.3368 3.31597 17.5 3.70833 17.5 4.16667V7.5H15.8333ZM10 14.1667C8.84722 14.1667 7.86458 13.7604 7.05208 12.9479C6.23958 12.1354 5.83333 11.1528 5.83333 10C5.83333 8.84722 6.23958 7.86458 7.05208 7.05208C7.86458 6.23958 8.84722 5.83333 10 5.83333C11.1528 5.83333 12.1354 6.23958 12.9479 7.05208C13.7604 7.86458 14.1667 8.84722 14.1667 10C14.1667 11.1528 13.7604 12.1354 12.9479 12.9479C12.1354 13.7604 11.1528 14.1667 10 14.1667ZM10 12.5C10.6944 12.5 11.2847 12.2569 11.7708 11.7708C12.2569 11.2847 12.5 10.6944 12.5 10C12.5 9.30556 12.2569 8.71528 11.7708 8.22917C11.2847 7.74306 10.6944 7.5 10 7.5C9.30556 7.5 8.71528 7.74306 8.22917 8.22917C7.74306 8.71528 7.5 9.30556 7.5 10C7.5 10.6944 7.74306 11.2847 8.22917 11.7708C8.71528 12.2569 9.30556 12.5 10 12.5Z" fill="#EEEEEE"/>
</svg>
